<?xml version="1.0" encoding="UTF-8"?>
<!DOCTYPE svg PUBLIC "-//W3C//DTD SVG 1.1//EN" "http://www.w3.org/Graphics/SVG/1.1/DTD/svg11.dtd">
<svg xmlns="http://www.w3.org/2000/svg" version="1.1" width="500px" height="500px" style="shape-rendering:geometricPrecision; text-rendering:geometricPrecision; image-rendering:optimizeQuality; fill-rule:evenodd; clip-rule:evenodd" xmlns:xlink="http://www.w3.org/1999/xlink">
<g><path style="opacity:1" fill="#fcfbe7" d="M 303.5,138.5 C 306.699,140.339 309.699,142.673 312.5,145.5C 313.816,142.972 314.983,142.972 316,145.5C 316.414,145.043 316.914,144.709 317.5,144.5C 319.115,145.154 320.782,145.654 322.5,146C 324.97,148.568 327.97,150.068 331.5,150.5C 335.732,152.4 339.399,155.067 342.5,158.5C 342.703,160.638 343.703,162.305 345.5,163.5C 345.291,164.086 344.957,164.586 344.5,165C 346.169,166.669 348.169,167.502 350.5,167.5C 350.5,169.167 350.5,170.833 350.5,172.5C 351.552,172.351 352.552,172.517 353.5,173C 355.876,176.919 358.376,180.752 361,184.5C 361.671,185.252 362.504,185.586 363.5,185.5C 363.986,187.807 363.986,189.973 363.5,192C 364.416,192.374 365.25,192.874 366,193.5C 366.31,199.775 367.643,205.775 370,211.5C 370.667,220.833 370.667,230.167 370,239.5C 368.241,242.608 367.408,245.941 367.5,249.5C 366.5,249.5 365.5,249.5 364.5,249.5C 364.672,251.492 364.005,253.158 362.5,254.5C 363.393,257.084 363.726,259.751 363.5,262.5C 360.944,268.049 357.61,273.049 353.5,277.5C 352.167,277.5 350.833,277.5 349.5,277.5C 349.5,278.5 349.5,279.5 349.5,280.5C 348.448,280.351 347.448,280.517 346.5,281C 345,283.167 343.167,285 341,286.5C 339.878,288.42 339.044,290.42 338.5,292.5C 337.5,292.5 336.5,292.5 335.5,292.5C 335.371,294.216 335.038,295.883 334.5,297.5C 327.193,304.472 319.86,311.472 312.5,318.5C 309.972,318.315 307.472,318.315 305,318.5C 303.881,319.552 303.381,320.719 303.5,322C 304.167,322.333 304.833,322.667 305.5,323C 302.569,323.761 300.903,325.594 300.5,328.5C 297.774,328.264 295.441,329.097 293.5,331C 294.308,331.308 294.975,331.808 295.5,332.5C 294.311,333.429 292.978,333.762 291.5,333.5C 291.5,335.167 291.5,336.833 291.5,338.5C 289.804,338.685 288.471,339.519 287.5,341C 311.863,341.196 336.197,341.696 360.5,342.5C 364.746,343.745 367.746,346.412 369.5,350.5C 370.2,354.798 370.533,359.131 370.5,363.5C 369.883,363.389 369.383,363.056 369,362.5C 367.86,365.102 367.027,367.769 366.5,370.5C 365.5,370.5 364.5,370.5 363.5,370.5C 363.5,371.833 363.5,373.167 363.5,374.5C 361.199,375.06 358.866,375.56 356.5,376C 317.501,376.5 278.501,376.667 239.5,376.5C 239.152,372.422 239.819,368.588 241.5,365C 240.475,360.195 240.308,355.362 241,350.5C 241.045,347.666 241.879,345.166 243.5,343C 242.833,342.667 242.167,342.333 241.5,342C 243.329,341.727 244.829,340.893 246,339.5C 245.775,336.525 246.275,333.525 247.5,330.5C 248.833,330.5 250.167,330.5 251.5,330.5C 251.5,331.5 251.5,332.5 251.5,333.5C 252.675,333.719 253.675,333.386 254.5,332.5C 255.093,330.618 255.76,328.785 256.5,327C 256.167,326.667 255.833,326.333 255.5,326C 257.577,325.808 259.577,325.308 261.5,324.5C 260.418,324.251 259.085,324.085 257.5,324C 259.167,322.833 260.833,321.667 262.5,320.5C 262.167,319.833 261.833,319.167 261.5,318.5C 264.822,316.677 267.489,314.177 269.5,311C 270.448,310.517 271.448,310.351 272.5,310.5C 272.36,308.876 273.027,307.71 274.5,307C 273.833,306.667 273.167,306.333 272.5,306C 273.646,305.355 274.646,304.522 275.5,303.5C 276.192,304.025 276.692,304.692 277,305.5C 278.01,297.803 282.177,294.969 289.5,297C 290.167,296.667 290.833,296.333 291.5,296C 290.333,293.167 291.167,292.333 294,293.5C 294.925,292.953 295.758,292.287 296.5,291.5C 297.18,289.111 298.014,286.778 299,284.5C 299.333,284.833 299.667,285.167 300,285.5C 301.493,281.341 304.326,278.507 308.5,277C 305.696,274.399 306.029,272.899 309.5,272.5C 309.5,271.5 309.5,270.5 309.5,269.5C 314.528,264.14 319.528,258.807 324.5,253.5C 327.098,251.696 329.265,249.362 331,246.5C 331.49,245.207 331.657,243.873 331.5,242.5C 333.476,235.982 334.809,229.316 335.5,222.5C 335.695,215.049 334.862,207.715 333,200.5C 331.833,199.333 330.667,198.167 329.5,197C 330.167,196.667 330.833,196.333 331.5,196C 329.545,195.047 327.878,193.713 326.5,192C 325.552,191.517 324.552,191.351 323.5,191.5C 323.657,190.127 323.49,188.793 323,187.5C 321.586,188.413 320.086,188.413 318.5,187.5C 316.285,184.685 313.951,181.852 311.5,179C 306.387,176.87 301.054,175.703 295.5,175.5C 284.173,174.56 273.173,175.893 262.5,179.5C 257.991,180.71 253.658,182.377 249.5,184.5C 248.147,185.524 247.48,186.857 247.5,188.5C 245.856,188.714 244.356,188.38 243,187.5C 241.691,189.891 240.691,189.891 240,187.5C 239.667,189.167 239.333,190.833 239,192.5C 237.989,193.337 236.822,193.67 235.5,193.5C 235.335,195.827 234.669,197.993 233.5,200C 233.957,200.414 234.291,200.914 234.5,201.5C 231.771,202.062 230.271,203.728 230,206.5C 229.683,204.699 229.016,204.366 228,205.5C 225.732,208.085 224.566,211.085 224.5,214.5C 224.167,214.5 223.833,214.5 223.5,214.5C 221.856,214.714 220.356,214.38 219,213.5C 218.5,214.667 217.667,215.5 216.5,216C 217.167,216.333 217.833,216.667 218.5,217C 217.027,217.71 216.36,218.876 216.5,220.5C 215.5,220.5 214.5,220.5 213.5,220.5C 213.5,222.167 213.5,223.833 213.5,225.5C 213.167,225.5 212.833,225.5 212.5,225.5C 208.515,225.44 206.848,227.44 207.5,231.5C 204.071,235.262 200.071,238.262 195.5,240.5C 191.167,240.5 186.833,240.5 182.5,240.5C 182.167,240.5 181.833,240.5 181.5,240.5C 181.167,239.833 180.833,239.167 180.5,238.5C 180.414,237.504 180.748,236.671 181.5,236C 179.781,234.943 177.947,234.11 176,233.5C 175.503,230.854 175.336,228.187 175.5,225.5C 176.5,225.5 177.5,225.5 178.5,225.5C 178.073,222.624 177.406,219.791 176.5,217C 178.145,215.968 178.478,214.801 177.5,213.5C 178.376,212.749 179.376,212.249 180.5,212C 177.833,211.333 177.833,210.667 180.5,210C 179.692,209.692 179.025,209.192 178.5,208.5C 179.912,207.194 181.579,206.36 183.5,206C 182.304,205.346 182.304,204.846 183.5,204.5C 184.161,208.065 185.827,208.898 188.5,207C 187.664,205.757 187.997,204.59 189.5,203.5C 190.086,203.709 190.586,204.043 191,204.5C 193.272,202.538 195.106,200.205 196.5,197.5C 195.91,196.201 194.91,195.368 193.5,195C 196.29,194.439 198.623,193.106 200.5,191C 200.167,190.667 199.833,190.333 199.5,190C 203.157,186.879 205.824,183.045 207.5,178.5C 211.167,174.167 215.167,170.167 219.5,166.5C 221.086,165.587 222.586,165.587 224,166.5C 224.402,165.128 224.902,163.795 225.5,162.5C 226.274,161.289 227.107,161.289 228,162.5C 228.573,160.359 229.406,158.359 230.5,156.5C 245.95,142.958 264.116,136.625 285,137.5C 291.193,137.593 297.36,137.926 303.5,138.5 Z"/></g>
<g><path style="opacity:1" fill="#fdfce9" d="M 164.5,147.5 C 165.654,219.478 165.821,291.478 165,363.5C 162.732,366.085 161.566,369.085 161.5,372.5C 160.564,373.974 159.23,374.974 157.5,375.5C 151.343,377.152 145.343,376.819 139.5,374.5C 137.16,373.011 135.826,370.844 135.5,368C 136.642,363.5 137.309,359.167 137.5,355C 136.874,354.25 136.374,353.416 136,352.5C 135.667,356.833 135.333,361.167 135,365.5C 133.054,362.861 132.054,359.861 132,356.5C 131.167,288.164 131.333,219.831 132.5,151.5C 133.333,149.5 134.167,147.5 135,145.5C 137.831,144.121 139.998,142.121 141.5,139.5C 151.29,135.764 158.957,138.431 164.5,147.5 Z"/></g>
<g><path style="opacity:1" fill="#bec4bb" d="M 303.5,138.5 C 310.315,140.16 316.982,142.327 323.5,145C 326.621,146.306 329.287,148.14 331.5,150.5C 327.97,150.068 324.97,148.568 322.5,146C 320.782,145.654 319.115,145.154 317.5,144.5C 316.914,144.709 316.414,145.043 316,145.5C 314.983,142.972 313.816,142.972 312.5,145.5C 309.699,142.673 306.699,140.339 303.5,138.5 Z"/></g>
<g><path style="opacity:0.916" fill="#b9bcb5" d="M 230.5,156.5 C 229.406,158.359 228.573,160.359 228,162.5C 227.107,161.289 226.274,161.289 225.5,162.5C 224.902,163.795 224.402,165.128 224,166.5C 222.586,165.587 221.086,165.587 219.5,166.5C 222.563,162.434 226.229,159.101 230.5,156.5 Z"/></g>
<g><path style="opacity:0.992" fill="#cfd2cc" d="M 342.5,158.5 C 351.673,165.863 358.673,174.863 363.5,185.5C 362.504,185.586 361.671,185.252 361,184.5C 358.376,180.752 355.876,176.919 353.5,173C 352.552,172.517 351.552,172.351 350.5,172.5C 350.5,170.833 350.5,169.167 350.5,167.5C 348.169,167.502 346.169,166.669 344.5,165C 344.957,164.586 345.291,164.086 345.5,163.5C 343.703,162.305 342.703,160.638 342.5,158.5 Z"/></g>
<g><path style="opacity:0.941" fill="#bdbfbb" d="M 295.5,175.5 C 301.054,175.703 306.387,176.87 311.5,179C 313.951,181.852 316.285,184.685 318.5,187.5C 311.614,181.984 303.947,177.984 295.5,175.5 Z"/></g>
<g><path style="opacity:1" fill="#dedfd2" d="M 262.5,179.5 C 248.607,189.722 235.94,201.389 224.5,214.5C 224.566,211.085 225.732,208.085 228,205.5C 229.016,204.366 229.683,204.699 230,206.5C 230.271,203.728 231.771,202.062 234.5,201.5C 234.291,200.914 233.957,200.414 233.5,200C 234.669,197.993 235.335,195.827 235.5,193.5C 236.822,193.67 237.989,193.337 239,192.5C 239.333,190.833 239.667,189.167 240,187.5C 240.691,189.891 241.691,189.891 243,187.5C 244.356,188.38 245.856,188.714 247.5,188.5C 247.48,186.857 248.147,185.524 249.5,184.5C 253.658,182.377 257.991,180.71 262.5,179.5 Z"/></g>
<g><path style="opacity:0.98" fill="#babab9" d="M 318.5,187.5 C 320.086,188.413 321.586,188.413 323,187.5C 323.49,188.793 323.657,190.127 323.5,191.5C 324.552,191.351 325.552,191.517 326.5,192C 327.878,193.713 329.545,195.047 331.5,196C 330.833,196.333 330.167,196.667 329.5,197C 330.667,198.167 331.833,199.333 333,200.5C 334.862,207.715 335.695,215.049 335.5,222.5C 334.423,208.677 328.756,197.011 318.5,187.5 Z"/></g>
<g><path style="opacity:0.562" fill="#a5a6a1" d="M 164.5,147.5 C 165.776,149.562 166.61,151.896 167,154.5C 167.667,222.833 167.667,291.167 167,359.5C 166.601,364.555 164.768,368.889 161.5,372.5C 161.566,369.085 162.732,366.085 165,363.5C 165.821,291.478 165.654,219.478 164.5,147.5 Z"/></g>
<g><path style="opacity:0.478" fill="#80868b" d="M 367.5,194.5 C 368.924,196.515 369.59,198.848 369.5,201.5C 367.837,199.562 367.171,197.228 367.5,194.5 Z"/></g>
<g><path style="opacity:0.137" fill="#6e897c" d="M 187.5,197.5 C 186.92,199.749 185.587,201.415 183.5,202.5C 184.08,200.251 185.413,198.585 187.5,197.5 Z"/></g>
<g><path style="opacity:1" fill="#e4e2d7" d="M 207.5,178.5 C 205.824,183.045 203.157,186.879 199.5,190C 199.833,190.333 200.167,190.667 200.5,191C 198.623,193.106 196.29,194.439 193.5,195C 194.91,195.368 195.91,196.201 196.5,197.5C 195.106,200.205 193.272,202.538 191,204.5C 190.586,204.043 190.086,203.709 189.5,203.5C 187.997,204.59 187.664,205.757 188.5,207C 185.827,208.898 184.161,208.065 183.5,204.5C 182.304,204.846 182.304,205.346 183.5,206C 181.579,206.36 179.912,207.194 178.5,208.5C 179.025,209.192 179.692,209.692 180.5,210C 177.833,210.667 177.833,211.333 180.5,212C 179.376,212.249 178.376,212.749 177.5,213.5C 178.478,214.801 178.145,215.968 176.5,217C 177.406,219.791 178.073,222.624 178.5,225.5C 177.5,225.5 176.5,225.5 175.5,225.5C 175.336,228.187 175.503,230.854 176,233.5C 177.947,234.11 179.781,234.943 181.5,236C 180.748,236.671 180.414,237.504 180.5,238.5C 179.833,238.5 179.167,238.5 178.5,238.5C 169.747,230.841 168.247,221.841 174,211.5C 176.382,208.573 178.882,205.739 181.5,203C 182.094,202.536 182.761,202.369 183.5,202.5C 185.587,201.415 186.92,199.749 187.5,197.5C 194.14,191.194 200.807,184.861 207.5,178.5 Z"/></g>
<g><path style="opacity:1" fill="#c6c8bb" d="M 223.5,214.5 C 220.408,218.324 217.074,221.991 213.5,225.5C 213.5,223.833 213.5,222.167 213.5,220.5C 214.5,220.5 215.5,220.5 216.5,220.5C 216.36,218.876 217.027,217.71 218.5,217C 217.833,216.667 217.167,216.333 216.5,216C 217.667,215.5 218.5,214.667 219,213.5C 220.356,214.38 221.856,214.714 223.5,214.5 Z"/></g>
<g><path style="opacity:1" fill="#deede3" d="M 286.5,220.5 C 286.5,227.167 286.5,233.833 286.5,240.5C 281.968,240.182 277.634,240.515 273.5,241.5C 261.986,244.173 250.986,248.34 240.5,254C 228.477,262.344 216.143,270.177 203.5,277.5C 201.973,277.427 200.973,278.094 200.5,279.5C 198.365,281.071 196.032,282.404 193.5,283.5C 192.417,283.461 191.417,283.127 190.5,282.5C 184.757,285.862 178.757,288.529 172.5,290.5C 172.17,283.8 172.503,277.134 173.5,270.5C 174.522,270.145 175.189,269.478 175.5,268.5C 192.574,260.461 208.574,250.627 223.5,239C 230.401,234.719 237.401,230.719 244.5,227C 258.049,220.715 272.049,218.549 286.5,220.5 Z"/></g>
<g><path style="opacity:0.776" fill="#c1c3c0" d="M 363.5,185.5 C 365.592,188.088 366.925,191.088 367.5,194.5C 367.171,197.228 367.837,199.562 369.5,201.5C 373.322,216.303 373.489,231.303 370,246.5C 368.491,252.214 366.325,257.548 363.5,262.5C 363.726,259.751 363.393,257.084 362.5,254.5C 364.005,253.158 364.672,251.492 364.5,249.5C 365.5,249.5 366.5,249.5 367.5,249.5C 367.408,245.941 368.241,242.608 370,239.5C 370.667,230.167 370.667,220.833 370,211.5C 367.643,205.775 366.31,199.775 366,193.5C 365.25,192.874 364.416,192.374 363.5,192C 363.986,189.973 363.986,187.807 363.5,185.5 Z"/></g>
<g><path style="opacity:0.604" fill="#a3a1a6" d="M 212.5,225.5 C 211.203,227.798 209.537,229.798 207.5,231.5C 206.848,227.44 208.515,225.44 212.5,225.5 Z"/></g>
<g><path style="opacity:0.035" fill="#4d4e4e" d="M 178.5,238.5 C 179.167,238.5 179.833,238.5 180.5,238.5C 180.833,239.167 181.167,239.833 181.5,240.5C 179.973,240.573 178.973,239.906 178.5,238.5 Z"/></g>
<g><path style="opacity:0.269" fill="#6a7a7a" d="M 286.5,220.5 C 287.819,227.344 287.819,234.344 286.5,241.5C 282.288,241.724 277.954,241.724 273.5,241.5C 277.634,240.515 281.968,240.182 286.5,240.5C 286.5,233.833 286.5,227.167 286.5,220.5 Z"/></g>
<g><path style="opacity:0.012" fill="#425655" d="M 182.5,240.5 C 186.833,240.5 191.167,240.5 195.5,240.5C 191.196,243.09 186.863,243.09 182.5,240.5 Z"/></g>
<g><path style="opacity:0.129" fill="#777c7a" d="M 331.5,242.5 C 331.657,243.873 331.49,245.207 331,246.5C 329.265,249.362 327.098,251.696 324.5,253.5C 326.597,249.628 328.931,245.961 331.5,242.5 Z"/></g>
<g><path style="opacity:0.999" fill="#becac5" d="M 235.5,278.5 C 235.22,275.728 235.887,273.228 237.5,271C 239.235,270.349 240.902,270.515 242.5,271.5C 243.696,271.154 243.696,270.654 242.5,270C 243.833,269.667 245.167,269.333 246.5,269C 246.167,268.667 245.833,268.333 245.5,268C 249.725,268.434 252.225,266.601 253,262.5C 257.195,261.678 258.861,259.345 258,255.5C 260.985,256.961 263.485,256.295 265.5,253.5C 263.926,252.369 262.259,252.202 260.5,253C 255.67,255.42 250.67,257.254 245.5,258.5C 256.232,252.227 267.899,248.56 280.5,247.5C 282.941,247.536 284.941,248.369 286.5,250C 268.118,257.258 251.118,266.758 235.5,278.5 Z"/></g>
<g><path style="opacity:0.261" fill="#75807e" d="M 175.5,268.5 C 175.189,269.478 174.522,270.145 173.5,270.5C 172.503,277.134 172.17,283.8 172.5,290.5C 171.66,286.004 170.993,281.337 170.5,276.5C 170.701,274.027 171.368,271.694 172.5,269.5C 173.417,268.873 174.417,268.539 175.5,268.5 Z"/></g>
<g><path style="opacity:0.004" fill="#363737" d="M 203.5,277.5 C 203.027,278.906 202.027,279.573 200.5,279.5C 200.973,278.094 201.973,277.427 203.5,277.5 Z"/></g>
<g><path style="opacity:0.71" fill="#98a9a6" d="M 193.5,283.5 C 187.452,287.023 180.952,289.689 174,291.5C 173.235,291.43 172.735,291.097 172.5,290.5C 178.757,288.529 184.757,285.862 190.5,282.5C 191.417,283.127 192.417,283.461 193.5,283.5 Z"/></g>
<g><path style="opacity:0.941" fill="#c2c2bd" d="M 353.5,277.5 C 347.869,284.798 341.536,291.465 334.5,297.5C 335.038,295.883 335.371,294.216 335.5,292.5C 336.5,292.5 337.5,292.5 338.5,292.5C 339.044,290.42 339.878,288.42 341,286.5C 343.167,285 345,283.167 346.5,281C 347.448,280.517 348.448,280.351 349.5,280.5C 349.5,279.5 349.5,278.5 349.5,277.5C 350.833,277.5 352.167,277.5 353.5,277.5 Z"/></g>
<g><path style="opacity:1" fill="#bfcac7" d="M 217.5,291.5 C 207.548,300.145 196.881,307.811 185.5,314.5C 185.67,313.178 185.337,312.011 184.5,311C 186.112,310.28 187.612,310.446 189,311.5C 191.825,310.416 191.992,309.249 189.5,308C 193.185,307.086 192.852,306.419 188.5,306C 192.421,305.955 195.588,304.455 198,301.5C 199.356,302.38 200.856,302.714 202.5,302.5C 202.281,301.325 202.614,300.325 203.5,299.5C 204.425,300.641 205.259,300.641 206,299.5C 206.684,298.216 206.517,297.049 205.5,296C 207.473,295.505 209.473,295.338 211.5,295.5C 211.5,294.167 211.5,292.833 211.5,291.5C 213.5,291.5 215.5,291.5 217.5,291.5 Z"/></g>
<g><path style="opacity:1" fill="#bacbc7" d="M 262.5,305.5 C 263.654,303.077 264.821,300.744 266,298.5C 267.491,296.996 269.324,296.163 271.5,296C 270.833,295.333 270.167,294.667 269.5,294C 271.085,293.915 272.418,293.749 273.5,293.5C 268.88,292.507 264.214,292.173 259.5,292.5C 259.178,294.722 259.845,296.556 261.5,298C 260.122,299.713 258.455,301.047 256.5,302C 257.337,303.011 257.67,304.178 257.5,305.5C 253.539,304.755 252.872,302.922 255.5,300C 255.355,299.228 255.022,298.561 254.5,298C 258.642,294.833 257.976,293.833 252.5,295C 250.269,295.622 248.435,296.789 247,298.5C 246.329,297.748 245.496,297.414 244.5,297.5C 253.015,292.227 262.349,290.061 272.5,291C 275.789,292.077 276.289,293.91 274,296.5C 270.291,299.715 266.458,302.715 262.5,305.5 Z"/></g>
<g><path style="opacity:1" fill="#dcece2" d="M 235.5,278.5 C 229.5,282.833 223.5,287.167 217.5,291.5C 215.5,291.5 213.5,291.5 211.5,291.5C 211.5,292.833 211.5,294.167 211.5,295.5C 209.473,295.338 207.473,295.505 205.5,296C 206.517,297.049 206.684,298.216 206,299.5C 205.259,300.641 204.425,300.641 203.5,299.5C 202.614,300.325 202.281,301.325 202.5,302.5C 200.856,302.714 199.356,302.38 198,301.5C 195.588,304.455 192.421,305.955 188.5,306C 192.852,306.419 193.185,307.086 189.5,308C 191.992,309.249 191.825,310.416 189,311.5C 187.612,310.446 186.112,310.28 184.5,311C 185.337,312.011 185.67,313.178 185.5,314.5C 183.151,316.341 180.485,317.674 177.5,318.5C 175.833,318.5 174.167,318.5 172.5,318.5C 172.5,311.833 172.5,305.167 172.5,298.5C 194.94,290.236 215.606,278.736 234.5,264C 237.91,261.628 241.577,259.795 245.5,258.5C 250.67,257.254 255.67,255.42 260.5,253C 262.259,252.202 263.926,252.369 265.5,253.5C 263.485,256.295 260.985,256.961 258,255.5C 258.861,259.345 257.195,261.678 253,262.5C 252.225,266.601 249.725,268.434 245.5,268C 245.833,268.333 246.167,268.667 246.5,269C 245.167,269.333 243.833,269.667 242.5,270C 243.696,270.654 243.696,271.154 242.5,271.5C 240.902,270.515 239.235,270.349 237.5,271C 235.887,273.228 235.22,275.728 235.5,278.5 Z"/></g>
<g><path style="opacity:1" fill="#e1f2e7" d="M 262.5,305.5 C 259.05,304.756 257.384,306.09 257.5,309.5C 254.678,310.157 252.011,310.49 249.5,310.5C 248.123,312.289 247.123,314.289 246.5,316.5C 244.726,317.187 243.059,318.02 241.5,319C 242.022,319.561 242.355,320.228 242.5,321C 241.419,322.371 240.585,323.871 240,325.5C 239.586,325.043 239.086,324.709 238.5,324.5C 237.833,326.167 237.167,327.833 236.5,329.5C 235.803,327.615 234.803,327.282 233.5,328.5C 231.466,332.012 229.299,335.345 227,338.5C 226.667,338.167 226.333,337.833 226,337.5C 224.54,339.972 223.54,342.639 223,345.5C 222.667,344.833 222.333,344.167 222,343.5C 221.609,348.854 221.109,354.188 220.5,359.5C 217.795,359.38 217.128,360.38 218.5,362.5C 215.69,366.574 214.023,371.074 213.5,376C 204.173,376.5 194.839,376.666 185.5,376.5C 188.061,368.14 190.728,359.806 193.5,351.5C 200.851,335.023 211.518,320.857 225.5,309C 231.474,304.517 237.807,300.683 244.5,297.5C 245.496,297.414 246.329,297.748 247,298.5C 248.435,296.789 250.269,295.622 252.5,295C 257.976,293.833 258.642,294.833 254.5,298C 255.022,298.561 255.355,299.228 255.5,300C 252.872,302.922 253.539,304.755 257.5,305.5C 257.67,304.178 257.337,303.011 256.5,302C 258.455,301.047 260.122,299.713 261.5,298C 259.845,296.556 259.178,294.722 259.5,292.5C 264.214,292.173 268.88,292.507 273.5,293.5C 272.418,293.749 271.085,293.915 269.5,294C 270.167,294.667 270.833,295.333 271.5,296C 269.324,296.163 267.491,296.996 266,298.5C 264.821,300.744 263.654,303.077 262.5,305.5 Z"/></g>
<g><path style="opacity:0.145" fill="#5c6c6e" d="M 172.5,298.5 C 172.5,305.167 172.5,311.833 172.5,318.5C 174.167,318.5 175.833,318.5 177.5,318.5C 175.829,320.008 173.996,320.341 172,319.5C 171.179,312.321 171.345,305.321 172.5,298.5 Z"/></g>
<g><path style="opacity:1" fill="#dcdbd0" d="M 309.5,269.5 C 309.5,270.5 309.5,271.5 309.5,272.5C 306.029,272.899 305.696,274.399 308.5,277C 304.326,278.507 301.493,281.341 300,285.5C 299.667,285.167 299.333,284.833 299,284.5C 298.014,286.778 297.18,289.111 296.5,291.5C 295.758,292.287 294.925,292.953 294,293.5C 291.167,292.333 290.333,293.167 291.5,296C 290.833,296.333 290.167,296.667 289.5,297C 282.177,294.969 278.01,297.803 277,305.5C 276.692,304.692 276.192,304.025 275.5,303.5C 274.646,304.522 273.646,305.355 272.5,306C 273.167,306.333 273.833,306.667 274.5,307C 273.027,307.71 272.36,308.876 272.5,310.5C 271.448,310.351 270.448,310.517 269.5,311C 267.489,314.177 264.822,316.677 261.5,318.5C 261.833,319.167 262.167,319.833 262.5,320.5C 260.833,321.667 259.167,322.833 257.5,324C 259.085,324.085 260.418,324.251 261.5,324.5C 259.577,325.308 257.577,325.808 255.5,326C 255.833,326.333 256.167,326.667 256.5,327C 255.76,328.785 255.093,330.618 254.5,332.5C 253.675,333.386 252.675,333.719 251.5,333.5C 251.5,332.5 251.5,331.5 251.5,330.5C 250.167,330.5 248.833,330.5 247.5,330.5C 246.275,333.525 245.775,336.525 246,339.5C 244.829,340.893 243.329,341.727 241.5,342C 242.167,342.333 242.833,342.667 243.5,343C 241.879,345.166 241.045,347.666 241,350.5C 240.308,355.362 240.475,360.195 241.5,365C 239.819,368.588 239.152,372.422 239.5,376.5C 238.778,376.082 238.278,375.416 238,374.5C 237.333,362.5 237.333,350.5 238,338.5C 238.383,337.944 238.883,337.611 239.5,337.5C 241.587,336.415 242.92,334.749 243.5,332.5C 246.167,329.833 248.833,327.167 251.5,324.5C 253.833,324.167 255.167,322.833 255.5,320.5C 272.869,302.796 290.869,285.796 309.5,269.5 Z"/></g>
<g><path style="opacity:0.184" fill="#4d5250" d="M 255.5,320.5 C 255.167,322.833 253.833,324.167 251.5,324.5C 252.5,322.833 253.833,321.5 255.5,320.5 Z"/></g>
<g><path style="opacity:0.988" fill="#cacdc6" d="M 312.5,318.5 C 305.526,325.139 298.526,331.806 291.5,338.5C 291.5,336.833 291.5,335.167 291.5,333.5C 292.978,333.762 294.311,333.429 295.5,332.5C 294.975,331.808 294.308,331.308 293.5,331C 295.441,329.097 297.774,328.264 300.5,328.5C 300.903,325.594 302.569,323.761 305.5,323C 304.833,322.667 304.167,322.333 303.5,322C 303.381,320.719 303.881,319.552 305,318.5C 307.472,318.315 309.972,318.315 312.5,318.5 Z"/></g>
<g><path style="opacity:0.92" fill="#d3ddd5" d="M 262.5,305.5 C 253.536,314.965 244.369,324.298 235,333.5C 229.683,342.008 224.85,350.675 220.5,359.5C 221.109,354.188 221.609,348.854 222,343.5C 222.333,344.167 222.667,344.833 223,345.5C 223.54,342.639 224.54,339.972 226,337.5C 226.333,337.833 226.667,338.167 227,338.5C 229.299,335.345 231.466,332.012 233.5,328.5C 234.803,327.282 235.803,327.615 236.5,329.5C 237.167,327.833 237.833,326.167 238.5,324.5C 239.086,324.709 239.586,325.043 240,325.5C 240.585,323.871 241.419,322.371 242.5,321C 242.355,320.228 242.022,319.561 241.5,319C 243.059,318.02 244.726,317.187 246.5,316.5C 247.123,314.289 248.123,312.289 249.5,310.5C 252.011,310.49 254.678,310.157 257.5,309.5C 257.384,306.09 259.05,304.756 262.5,305.5 Z"/></g>
<g><path style="opacity:0.408" fill="#748783" d="M 243.5,332.5 C 242.92,334.749 241.587,336.415 239.5,337.5C 240.08,335.251 241.413,333.585 243.5,332.5 Z"/></g>
<g><path style="opacity:0.153" fill="#9caaa3" d="M 291.5,338.5 C 291.389,339.117 291.056,339.617 290.5,340C 313.5,340.333 336.5,340.667 359.5,341C 360.056,341.383 360.389,341.883 360.5,342.5C 336.197,341.696 311.863,341.196 287.5,341C 288.471,339.519 289.804,338.685 291.5,338.5 Z"/></g>
<g><path style="opacity:1" fill="#cbcbc2" d="M 141.5,139.5 C 139.998,142.121 137.831,144.121 135,145.5C 134.167,147.5 133.333,149.5 132.5,151.5C 131.333,219.831 131.167,288.164 132,356.5C 132.054,359.861 133.054,362.861 135,365.5C 135.333,361.167 135.667,356.833 136,352.5C 136.374,353.416 136.874,354.25 137.5,355C 137.309,359.167 136.642,363.5 135.5,368C 135.826,370.844 137.16,373.011 139.5,374.5C 145.343,376.819 151.343,377.152 157.5,375.5C 147.451,380.832 138.951,378.832 132,369.5C 131.178,367.212 130.511,364.878 130,362.5C 129.333,292.833 129.333,223.167 130,153.5C 131.135,146.539 134.968,141.872 141.5,139.5 Z"/></g>
<g><path style="opacity:0.197" fill="#757a7b" d="M 369.5,350.5 C 370.991,353.186 371.657,356.186 371.5,359.5C 371.495,361.696 371.162,363.696 370.5,365.5C 370.5,364.833 370.5,364.167 370.5,363.5C 370.533,359.131 370.2,354.798 369.5,350.5 Z"/></g>
<g><path style="opacity:0.961" fill="#bec0b8" d="M 370.5,363.5 C 370.5,364.167 370.5,364.833 370.5,365.5C 369.25,369.408 366.917,372.408 363.5,374.5C 363.5,373.167 363.5,371.833 363.5,370.5C 364.5,370.5 365.5,370.5 366.5,370.5C 367.027,367.769 367.86,365.102 369,362.5C 369.383,363.056 369.883,363.389 370.5,363.5 Z"/></g>
<g><path style="opacity:0.557" fill="#a3b1af" d="M 193.5,351.5 C 190.728,359.806 188.061,368.14 185.5,376.5C 194.839,376.666 204.173,376.5 213.5,376C 214.023,371.074 215.69,366.574 218.5,362.5C 217.128,360.38 217.795,359.38 220.5,359.5C 218.425,364.319 216.925,369.319 216,374.5C 215.535,375.931 214.701,377.097 213.5,378C 203.833,378.667 194.167,378.667 184.5,378C 183.919,377.107 183.585,376.107 183.5,375C 185.603,366.49 188.936,358.657 193.5,351.5 Z"/></g>
<g><path style="opacity:0.505" fill="#9ea095" d="M 363.5,374.5 C 361.333,376.511 358.666,377.678 355.5,378C 336.167,378.167 316.833,378.333 297.5,378.5C 277.822,378.5 258.488,377.833 239.5,376.5C 278.501,376.667 317.501,376.5 356.5,376C 358.866,375.56 361.199,375.06 363.5,374.5 Z"/></g>
</svg>
